<svg xmlns="http://www.w3.org/2000/svg" width="17.105" height="13.311" viewBox="0 0 17.105 13.311">
  <path id="Subtraction_22" data-name="Subtraction 22" d="M8.5,13.311a8.355,8.355,0,0,1-4.124-1.055l-.265-.151-1.186-.827-.009-.008c-.123-.106-.33-.285-.333-.29A11.944,11.944,0,0,1,.522,8.493a3.477,3.477,0,0,1,0-3.676A9.434,9.434,0,0,1,8.549,0h.057a8.325,8.325,0,0,1,3.922.946c.335.181.465.258.466.258l1.181.829c.019.017.465.405.471.416a11.987,11.987,0,0,1,1.931,2.369,3.473,3.473,0,0,1,0,3.676,9.434,9.434,0,0,1-8.027,4.818Zm.04-8.664a2,2,0,1,0,2,2A2,2,0,0,0,8.539,4.648Z" transform="translate(0.003 0)" fill="#c6c7dc"/>
</svg>
