<svg xmlns="http://www.w3.org/2000/svg" width="17.098" height="15.664" viewBox="0 0 17.098 15.664">
  <g id="eye-crossed" transform="translate(0 -21.492)">
    <path id="Path_85321" data-name="Path 85321" d="M16.576,27.477a11.3,11.3,0,0,0-2.4-2.784L16.169,22.7a.712.712,0,0,0-1.007-1.007l-2.169,2.171a8.585,8.585,0,0,0-4.445-1.2A9.434,9.434,0,0,0,.522,27.477a3.5,3.5,0,0,0,0,3.676,11.3,11.3,0,0,0,2.4,2.784L.928,35.931a.712.712,0,0,0,.989,1.025l.018-.018,2.174-2.174a8.584,8.584,0,0,0,4.44,1.206,9.434,9.434,0,0,0,8.027-4.817A3.5,3.5,0,0,0,16.576,27.477Zm-12.3,1.838a4.266,4.266,0,0,1,6.745-3.479L9.987,26.87a2.811,2.811,0,0,0-1.438-.4A2.849,2.849,0,0,0,5.7,29.315a2.811,2.811,0,0,0,.4,1.438L5.07,31.787A4.245,4.245,0,0,1,4.276,29.315Zm4.273,4.273a4.245,4.245,0,0,1-2.472-.794L7.111,31.76a2.811,2.811,0,0,0,1.438.4A2.849,2.849,0,0,0,11.4,29.315a2.811,2.811,0,0,0-.4-1.438l1.034-1.034a4.266,4.266,0,0,1-3.479,6.745Z" fill="#c6c7dc"/>
  </g>
</svg>
